HIERARCHY
ROOT Hips
{
	OFFSET 0.00000 0.00000 0.00000
	CHANNELS 6 Xposition Yposition Zposition Zrotation Yrotation Xrotation 
	JOINT LHipJoint
	{
		OFFSET 0 0 0
		CHANNELS 3 Zrotation Yrotation Xrotation
		JOINT LeftUpLeg
		{
			OFFSET 1.65674 -1.80282 0.62477
			CHANNELS 3 Zrotation Yrotation Xrotation
			JOINT LeftLeg
			{
				OFFSET 2.59720 -7.13576 0.00000
				CHANNELS 3 Zrotation Yrotation Xrotation
				JOINT LeftFoot
				{
					OFFSET 2.49236 -6.84770 0.00000
					CHANNELS 3 Zrotation Yrotation Xrotation
					JOINT LeftToeBase
					{
						OFFSET 0.19704 -0.54136 2.14581
						CHANNELS 3 Zrotation Yrotation Xrotation
						End Site
						{
							OFFSET 0.00000 -0.00000 1.11249
						}
					}
				}
			}
		}
	}
	JOINT RHipJoint
	{
		OFFSET 0 0 0
		CHANNELS 3 Zrotation Yrotation Xrotation
		JOINT RightUpLeg
		{
			OFFSET -1.61070 -1.80282 0.62476
			CHANNELS 3 Zrotation Yrotation Xrotation
			JOINT RightLeg
			{
				OFFSET -2.59502 -7.12977 0.00000
				CHANNELS 3 Zrotation Yrotation Xrotation
				JOINT RightFoot
				{
					OFFSET -2.46780 -6.78024 0.00000
					CHANNELS 3 Zrotation Yrotation Xrotation
					JOINT RightToeBase
					{
						OFFSET -0.23024 -0.63258 2.13368
						CHANNELS 3 Zrotation Yrotation Xrotation
						End Site
						{
							OFFSET -0.00000 -0.00000 1.11569
						}
					}
				}
			}
		}
	}
	JOINT LowerBack
	{
		OFFSET 0 0 0
		CHANNELS 3 Zrotation Yrotation Xrotation
		JOINT Spine
		{
			OFFSET 0.01961 2.05450 -0.14112
			CHANNELS 3 Zrotation Yrotation Xrotation
			JOINT Spine1
			{
				OFFSET 0.01021 2.06436 -0.05921
				CHANNELS 3 Zrotation Yrotation Xrotation
				JOINT Neck
				{
					OFFSET 0 0 0
					CHANNELS 3 Zrotation Yrotation Xrotation
					JOINT Neck1
					{
						OFFSET 0.00713 1.56711 0.14968
						CHANNELS 3 Zrotation Yrotation Xrotation
						JOINT Head
						{
							OFFSET 0.03429 1.56041 -0.10006
							CHANNELS 3 Zrotation Yrotation Xrotation
							End Site
							{
								OFFSET 0.01305 1.62560 -0.05265
							}
						}
					}
				}
				JOINT LeftShoulder
				{
					OFFSET 0 0 0
					CHANNELS 3 Zrotation Yrotation Xrotation
					JOINT LeftArm
					{
						OFFSET 3.54205 0.90436 -0.17364
						CHANNELS 3 Zrotation Yrotation Xrotation
						JOINT LeftForeArm
						{
							OFFSET 4.86513 -0.00000 -0.00000
							CHANNELS 3 Zrotation Yrotation Xrotation
							JOINT LeftHand
							{
								OFFSET 3.35554 -0.00000 0.00000
								CHANNELS 3 Zrotation Yrotation Xrotation
								JOINT LeftFingerBase
								{
									OFFSET 0 0 0
									CHANNELS 3 Zrotation Yrotation Xrotation
									JOINT LeftHandIndex1
									{
										OFFSET 0.66117 -0.00000 0.00000
										CHANNELS 3 Zrotation Yrotation Xrotation
										End Site
										{
											OFFSET 0.53306 -0.00000 0.00000
										}
									}
								}
								JOINT LThumb
								{
									OFFSET 0 0 0
									CHANNELS 3 Zrotation Yrotation Xrotation
									End Site
									{
										OFFSET 0.54120 -0.00000 0.54120
									}
								}
							}
						}
					}
				}
				JOINT RightShoulder
				{
					OFFSET 0 0 0
					CHANNELS 3 Zrotation Yrotation Xrotation
					JOINT RightArm
					{
						OFFSET -3.49802 0.75994 -0.32616
						CHANNELS 3 Zrotation Yrotation Xrotation
						JOINT RightForeArm
						{
							OFFSET -5.02649 -0.00000 0.00000
							CHANNELS 3 Zrotation Yrotation Xrotation
							JOINT RightHand
							{
								OFFSET -3.36431 -0.00000 0.00000
								CHANNELS 3 Zrotation Yrotation Xrotation
								JOINT RightFingerBase
								{
									OFFSET 0 0 0
									CHANNELS 3 Zrotation Yrotation Xrotation
									JOINT RightHandIndex1
									{
										OFFSET -0.73041 -0.00000 0.00000
										CHANNELS 3 Zrotation Yrotation Xrotation
										End Site
										{
											OFFSET -0.58887 -0.00000 0.00000
										}
									}
								}
								JOINT RThumb
								{
									OFFSET 0 0 0
									CHANNELS 3 Zrotation Yrotation Xrotation
									End Site
									{
										OFFSET -0.59786 -0.00000 0.59786
									}
								}
							}
						}
					}
				}
			}
		}
	}
}
MOTION
Frames: 10
Frame Time: .0083333
10.3808 17.7602 -0.1651 0 0 0 0 0 0 -21 0 0 0 0 0 0 0 0 0 0 0 0 0 0 21 0 0 0 0 0 0 0 0 0 0 0 0 0 0 0 0 0 0 0 0 0 0 -16 0 0 21 0 0 11 0 0 0 -8 0 0 0 0 0 0 0 0 0 0 0 0 0 0 0 0 0 0 0 0 8 0 0 0 0 0 0 0 0 0 0 0 0 0 0 0 0 0
10.3808 17.7602 -0.1651 -1.8026 3.7318 -7.7142 0.0000 0.0000 0.0000 -24.1255 5.4149 9.6974 0.4860 4.4703 12.4037 0.1038 15.9440 -23.6093 0.0276 1.0728 2.9492 0.0000 0.0000 0.0000 17.2244 7.7175 -0.2143 -0.8611 -5.9175 16.5453 0.1281 -8.4243 -8.9962 -0.0580 1.5546 -4.2763 -1.5205 -2.0537 5.7679 -0.3177 -2.8203 2.2300 0.7048 -1.4142 -0.8786 -4.5794 -5.9418 -8.7725 6.0049 -7.6497 0.4993 2.3739 -3.6794 2.1427 -0.0000 0.0000 0.0000 -92.2930 4.0359 20.9888 11.9107 -19.6705 -2.0721 -0.0000 0.0000 -16.6241 27.1751 14.5849 7.3662 -7.1250 0.0000 -0.0000 -0.3299 46.2829 -0.0104 -0.0000 0.0000 0.0000 89.5810 -7.1025 26.3333 -14.5388 23.4997 -3.0397 0.0000 -0.0000 -10.4128 -24.4307 18.3454 -8.1369 7.1250 -0.0000 -0.0000 2.3919 -9.9817 1.9429
10.3826 17.7638 -0.1677 -2.0376 3.6757 -7.7900 0.0000 0.0000 0.0000 -23.8505 5.4019 9.5259 0.5257 4.6464 12.9028 0.2373 15.4344 -24.1617 0.0457 1.3796 3.7939 0.0000 0.0000 0.0000 17.4939 7.6695 0.0075 -0.8285 -5.8073 16.2262 0.1445 -8.5634 -8.7796 -0.0637 1.6286 -4.4802 -1.3738 -2.0722 5.8200 -0.2267 -2.8360 2.2903 0.7177 -1.4224 -0.8478 -4.8028 -6.1168 -8.8891 6.1267 -7.8682 0.6689 2.4376 -3.7829 2.2515 -0.0000 -0.0000 0.0000 -92.2812 3.9868 21.2076 12.0742 -19.9158 -2.1275 -0.0000 0.0000 -16.7627 26.8281 13.4873 6.7273 -7.1250 0.0000 -0.0000 -0.5153 45.0233 -0.0003 -0.0000 -0.0000 0.0000 89.4515 -7.2888 26.6918 -14.8558 23.9448 -3.1672 0.0000 -0.0000 -10.7690 -23.3557 15.7726 -6.6946 7.1250 -0.0000 -0.0000 2.8977 -12.8948 2.1808
10.3846 17.7620 -0.1710 -2.1842 3.6570 -7.8721 0.0000 0.0000 0.0000 -23.6415 5.6112 9.8131 0.4848 4.4650 12.3886 0.2139 15.3481 -23.8428 0.0473 1.4033 3.8593 0.0000 0.0000 0.0000 17.6574 7.7201 -0.1987 -0.8843 -5.9946 16.7686 0.1317 -8.4737 -8.9862 -0.0701 1.7080 -4.6993 -1.2971 -2.1165 5.9355 -0.1637 -2.8911 2.3425 0.7465 -1.4500 -0.8576 -5.0317 -6.3392 -9.1777 6.2075 -8.1448 0.9499 2.4793 -3.9127 2.4321 0.0000 -0.0000 0.0000 -92.2322 3.9132 21.8685 12.2964 -20.2477 -2.2038 -0.0000 0.0000 -17.6283 26.6491 14.8088 7.3092 -7.1250 0.0000 -0.0000 -0.8595 46.4560 -0.0309 0.0000 -0.0000 0.0000 89.4022 -7.3207 26.8391 -15.0501 24.2159 -3.2465 0.0000 -0.0000 -10.8939 -22.8854 15.4322 -6.4089 7.1250 -0.0000 -0.0000 3.1908 -13.3187 2.3737
10.3846 17.7539 -0.1785 -1.5466 3.7718 -7.7987 0.0000 0.0000 0.0000 -24.3365 5.7628 9.7444 0.4670 4.3831 12.1570 0.0999 15.6942 -23.2393 0.0174 0.8526 2.3434 0.0000 0.0000 0.0000 16.9175 7.7665 -0.4058 -0.9118 -6.0844 17.0295 0.1112 -8.3244 -9.2894 -0.0658 1.6553 -4.5539 -2.0570 -2.1389 5.9852 -0.3209 -2.9659 2.3627 1.0153 -1.4904 -0.8319 -4.9231 -6.3883 -9.5706 6.1241 -8.2131 1.2010 2.4152 -3.9397 2.5826 -0.0000 -0.0000 0.0000 -92.2105 3.8164 22.6020 12.5661 -20.6481 -2.2980 -0.0000 0.0000 -19.0120 26.8540 16.7937 8.3227 -7.1250 0.0000 -0.0000 -0.9737 48.6668 -0.0881 -0.0000 -0.0000 0.0000 89.4133 -7.1565 26.9348 -15.0950 24.2783 -3.2649 0.0000 -0.0000 -10.9786 -22.9515 15.7480 -6.5565 7.1250 -0.0000 -0.0000 3.1670 -12.9727 2.3789
10.3848 17.7508 -0.1851 -0.9893 3.8952 -7.6784 0.0000 0.0000 0.0000 -24.9455 5.7523 9.7374 0.4465 4.2872 11.8862 0.0816 15.7014 -23.0764 0.0200 0.9131 2.5096 0.0000 0.0000 0.0000 16.2552 7.8394 -0.6797 -0.9425 -6.1833 17.3172 0.0929 -8.2171 -9.5919 -0.0635 1.6258 -4.4726 -2.7547 -2.1650 5.9658 -0.4479 -3.0402 2.3709 1.2774 -1.5310 -0.7799 -4.5861 -6.3721 -9.9065 5.8111 -8.2115 1.4363 2.2394 -3.9385 2.6872 0.0000 0.0000 0.0000 -92.2845 3.7564 22.8359 12.7570 -20.9301 -2.3658 -0.0000 0.0000 -19.6325 27.0143 17.1232 8.5370 -7.1250 0.0000 -0.0000 -0.8736 49.0540 -0.0874 0.0000 0.0000 0.0000 89.3688 -6.9259 27.2135 -15.1180 24.3102 -3.2744 0.0000 -0.0000 -11.1342 -23.3954 16.0530 -6.8223 7.1250 -0.0000 -0.0000 2.8907 -12.5890 2.1940
10.3900 17.7553 -0.1852 -1.1788 3.9124 -7.7146 0.0000 0.0000 0.0000 -24.7334 5.6831 9.8977 0.4343 4.2292 11.7224 0.1518 15.3896 -23.3247 0.0451 1.3709 3.7699 0.0000 0.0000 0.0000 16.4237 7.7511 -0.8243 -0.9654 -6.2557 17.5282 0.0913 -8.1703 -9.5524 -0.0741 1.7567 -4.8337 -2.5655 -2.2334 5.9821 -0.4333 -3.1203 2.4183 1.1911 -1.5710 -0.7464 -4.2964 -6.3663 -10.1227 5.6306 -8.2310 1.6612 2.1187 -3.9461 2.7784 -0.0000 -0.0000 0.0000 -92.2475 3.7787 22.9955 12.9785 -21.2557 -2.4455 -0.0000 0.0000 -19.9059 26.8492 17.0477 8.4414 -7.1250 0.0000 -0.0000 -1.0224 48.9444 -0.0995 -0.0000 -0.0000 0.0000 89.4072 -6.8339 27.4334 -15.2496 24.4927 -3.3288 0.0000 -0.0000 -11.1243 -24.1883 17.1133 -7.5294 7.1250 -0.0000 -0.0000 2.4449 -11.3419 1.9182
10.3951 17.7594 -0.1874 -1.2994 3.9296 -7.7153 0.0000 0.0000 0.0000 -24.6116 5.6936 9.8202 0.4442 4.2765 11.8558 0.1842 15.2434 -23.4376 0.0401 1.2932 3.5558 0.0000 0.0000 0.0000 16.5065 7.6832 -0.8429 -0.9649 -6.2541 17.5235 0.0893 -8.1457 -9.5626 -0.0684 1.6875 -4.6429 -2.3993 -2.2819 6.0135 -0.4507 -3.1767 2.4159 1.0857 -1.5979 -0.7745 -4.3531 -6.3728 -10.0534 5.8831 -8.2535 1.7451 2.2128 -3.9501 2.8137 -0.0000 -0.0000 0.0000 -92.1035 3.8106 23.3413 13.1842 -21.5565 -2.5206 -0.0000 0.0000 -20.3991 26.7860 17.0663 8.4274 -7.1250 0.0000 -0.0000 -1.0876 48.9546 -0.1061 -0.0000 -0.0000 0.0000 89.4536 -6.9346 27.5460 -15.4709 24.7980 -3.4210 0.0000 -0.0000 -11.1231 -24.6216 17.7961 -7.9734 7.1250 -0.0000 -0.0000 2.2180 -10.5434 1.7761
10.3963 17.7575 -0.1924 -1.6320 3.9903 -7.8040 0.0000 0.0000 0.0000 -24.2187 5.7291 9.7154 0.4652 4.3750 12.1341 0.2215 15.0249 -23.5034 0.0312 1.1396 3.1329 0.0000 0.0000 0.0000 16.8616 7.6450 -0.6770 -0.9532 -6.2172 17.4160 0.0890 -8.2217 -9.7048 -0.0469 1.3974 -3.8429 -2.1065 -2.3384 6.1446 -0.3602 -3.2368 2.4709 1.0237 -1.6270 -0.7999 -5.1953 -6.4288 -9.3642 7.0282 -8.2870 1.0925 2.7714 -3.9572 2.5826 -0.0000 0.0000 0.0000 -92.0343 3.6791 23.8548 13.2081 -21.5913 -2.5293 -0.0000 0.0000 -20.9011 27.2997 16.6826 8.4280 -7.1250 0.0000 -0.0000 -0.5199 48.6156 -0.0464 -0.0000 0.0000 0.0000 89.4122 -6.9643 27.7713 -15.6985 25.1102 -3.5171 0.0000 -0.0000 -11.4263 -24.6846 17.7401 -7.9722 7.1250 -0.0000 -0.0000 2.1718 -10.5944 1.7367
10.3981 17.7511 -0.1978 -1.8753 4.1332 -7.8726 0.0000 0.0000 0.0000 -23.9400 5.6471 9.5374 0.4955 4.5131 12.5248 0.2424 14.8790 -23.5123 0.0258 1.0364 2.8491 0.0000 0.0000 0.0000 17.1036 7.4573 -0.6466 -0.9449 -6.1909 17.3394 0.0951 -8.2639 -9.6186 -0.0768 1.7882 -4.9206 -1.8739 -2.3758 6.1927 -0.2962 -3.2714 2.6203 0.9599 -1.6456 -0.6812 -5.8607 -6.5821 -9.1138 7.9261 -8.4472 0.5867 3.2006 -4.0262 2.4701 -0.0000 0.0000 0.0000 -92.0568 3.4262 24.2004 13.2668 -21.6769 -2.5510 -0.0000 0.0000 -21.0439 27.8767 16.1488 8.3693 -7.1250 0.0000 -0.0000 0.1250 48.1170 0.0096 -0.0000 0.0000 0.0000 89.4057 -6.8119 27.8515 -15.9121 25.4013 -3.6082 0.0000 -0.0000 -11.7057 -24.6583 17.8208 -7.9973 7.1250 -0.0000 -0.0000 2.1962 -10.5114 1.7600
